PathFileType	4	(X/Y/Z)	Patient4_TMGait_0pt7_02_left_35.trc.trc
DataRate	CameraRate	NumFrames	NumMarkers	Units	OrigDataRate	OrigDataStartFrame	OrigNumFrames
86.419753086420	86.419753086420	4	33	mm	86.419753086420	53	       141
Frame#	Time	Sacral			L.Shoulder			Chest			R.Shoulder			Neck			R.ASIS			L.ASIS			R.Thigh.Superior			R.Thigh.Lateral			R.Thigh.Inferior			R.Patella			L.Thigh.Superior			L.Thigh.Lateral			L.Thigh.Inferior			L.Patella			L.Shank.Superior			L.Shank.Lateral			L.Shank.Inferior			R.Shank.Superior			R.Shank.Lateral			R.Shank.Inferior			R.Heel			R.Midfoot.Superior			R.Midfoot.Lateral			R.Toe			L.Heel			L.Midfoot.Lateral			L.Midfoot.Superior			L.Toe			L.Elbow			L.Wrist			R.Elbow			R.Wrist			
		X1	Y1	Z1	X2	Y2	Z2	X3	Y3	Z3	X4	Y4	Z4	X5	Y5	Z5	X6	Y6	Z6	X7	Y7	Z7	X8	Y8	Z8	X9	Y9	Z9	X10	Y10	Z10	X11	Y11	Z11	X12	Y12	Z12	X13	Y13	Z13	X14	Y14	Z14	X15	Y15	Z15	X16	Y16	Z16	X17	Y17	Z17	X18	Y18	Z18	X19	Y19	Z19	X20	Y20	Z20	X21	Y21	Z21	X22	Y22	Z22	X23	Y23	Z23	X24	Y24	Z24	X25	Y25	Z25	X26	Y26	Z26	X27	Y27	Z27	X28	Y28	Z28	X29	Y29	Z29	X30	Y30	Z30	X31	Y31	Z31	X32	Y32	Z32	X33	Y33	Z33	

53	40.631714285714	781.406398222910	1016.877282411805	431.509564724106	995.967633920875	1430.462384904536	241.947380156196	1092.201357870948	1357.454056230469	407.006655096987	1010.165817359628	1445.551985239921	575.140860252218	998.441161189792	1493.587830348740	395.002915493204	1000.450712994475	948.369876165321	556.856096438132	1000.605148065702	956.772218833564	283.849709826005	1091.264322478104	791.489743462123	526.471213894906	1063.666414481236	671.625146515348	605.845106180853	1155.894419152947	637.870324368672	525.920200954649	1182.407843141248	522.275868132788	550.565591815820	1048.535871176482	751.304226723427	315.673122868941	962.585405675008	636.126653159152	256.022541201106	1045.485878720377	558.562814939366	323.237065214184	1045.700206140504	487.808166302584	333.124867158685	1015.939810339717	416.350431405498	323.465726047500	924.858531929978	305.329585477916	267.883338891655	967.238960933890	192.216482126018	341.311508977204	1102.028976737355	448.078955369568	557.678683269474	976.040216976508	417.463240596551	614.000206973843	956.716288911101	308.922001113290	566.950353794723	755.023212334190	262.529022247734	531.718685061861	915.290862733910	189.319622943185	581.719709844948	804.826546949142	198.755135569706	608.349329557597	967.369175284023	71.207409996700	610.451710078163	833.364989527808	38.692605657615	376.492453296127	910.623760001049	35.449787361137	298.694640712690	992.304130396251	96.001619246938	329.385369989582	1122.390378670894	43.027100572395	306.072093349394	977.873544100485	1085.512114172021	110.347018349334	1123.742992517095	866.985611680001	127.939007763963	1024.218104748725	1101.986191472840	701.372082123730	1253.276260570904	1015.316627920132	624.684710203617	
54	40.643285714286	780.051855892037	1016.618537315635	430.175670290863	996.350670873140	1430.819808114641	241.852944640521	1091.256680244659	1357.437331614777	407.508241552763	1007.771709292590	1445.053979790160	575.217172900229	997.617978699733	1493.577597954973	395.089053284079	998.747072837191	948.978540355978	556.500173588080	999.926644977645	956.712800110149	283.544084218451	1091.995631897190	795.405656034943	526.058335426505	1067.216158331195	675.434232962103	606.040086924305	1160.139729720312	643.490243847507	526.100227855027	1189.428570140608	528.631944641030	550.981096798514	1046.347678341215	750.355770255473	315.671044845161	959.699976500665	635.741648610213	255.814900738146	1041.760631451657	557.536625889513	323.249057212014	1041.325774228566	486.722736624549	333.244364067754	1010.986818082765	415.488766342932	323.566845448794	919.120163219150	305.207904480200	267.908713177409	960.240838342063	191.775903273581	341.455051460334	1110.956714193169	452.468149285236	558.207244095600	985.889235231244	418.441211373654	614.541441094468	969.534570649546	309.309739758268	567.647440769224	769.083819954120	257.007450040316	532.674954398570	931.723371721834	188.860587640285	582.695087375486	820.909230284596	194.738293194919	609.201926612923	987.259339196549	72.287924067969	611.049070852854	825.262959874330	38.772228470483	376.505093232172	902.545724692012	35.509503780614	298.738961964239	984.333766190386	95.914531035132	329.467996771967	1114.373820866845	42.632503894986	306.068811008594	984.272884957008	1087.014341202544	107.331332959421	1142.719252163648	877.707302676306	125.941876845669	1014.195938195552	1100.222627949265	700.390816937772	1238.240569146296	992.682837585613	631.618962719680	
55	40.654857142857	778.763223536050	1016.341779791674	428.943903195153	996.794074574483	1431.129462353119	241.863790468073	1090.392570307116	1357.381744172746	408.089433196295	1005.494112567145	1444.534476888917	575.343809374128	996.864083859119	1493.532503844163	395.265949263884	997.114630104994	949.496178327357	556.290263069550	999.314150618538	956.584865097390	283.336368022152	1092.513758450641	798.973359898218	526.004799957678	1070.119342000176	678.899350072767	606.415849136039	1163.739933513956	648.641981993629	526.584897785564	1195.608104060210	534.707766520010	551.683669585487	1044.151553589784	749.384314811662	315.838197851354	956.798731950505	635.345901399662	255.657197682492	1037.948782983885	556.478161546382	323.331877558835	1036.844238381891	485.630450642289	333.399477122436	1005.938502205092	414.629808854202	323.689509652880	913.308660135983	305.083597881901	267.950112570852	953.217198143189	191.351961615334	341.598299650735	1119.351221284541	456.510979294073	558.994920285248	995.474614948419	418.544821621698	615.367081686090	982.590636595634	308.834832786668	568.632169235933	783.769811714929	249.840269316407	533.948395786222	948.915614444958	187.439105480019	583.999692281990	837.821287327932	189.349330738610	610.383308764228	1008.343420667277	72.685023546621	612.074226206594	817.166402359925	38.857655425823	376.518123573649	894.463911092436	35.564415073998	298.786675162744	976.351701005604	95.834356176429	329.545092429428	1106.344754183483	42.274726167502	306.060322277958	990.385284804518	1088.590412469916	104.615504385574	1160.909143009663	889.377835933178	124.401396537911	1004.790874468909	1098.651647526789	699.533133064664	1221.494703099527	970.808786150296	638.723948956704	
56	40.666428571429	777.545632402741	1016.075545669611	427.821890469241	997.294433212910	1431.399178153221	241.982593442478	1089.618671880217	1357.291399556132	408.747371085723	1003.366635998445	1444.009119734492	575.526580531015	996.193407840171	1493.461839137503	395.533259564026	995.567876142834	949.925223106285	556.229611126938	998.765998386916	956.406523811026	283.216099233145	1092.799208569532	802.145098537619	526.255526697991	1072.374160393148	681.958686321272	606.945886484999	1166.665004925432	653.240421809975	527.323546819050	1200.897549692075	540.403411267572	552.637238754788	1041.952521656918	748.394790626108	316.152691068915	953.856137929283	634.949482857904	255.552094361406	1034.020759494636	555.390871566546	323.480371396632	1032.227570950896	484.543582086336	333.587410649759	1000.772396870509	413.784950861331	323.832440293991	907.406460615590	304.963284236430	268.004009423629	946.156001755120	190.951028668639	341.740168127318	1127.154253287964	460.154220722936	560.016879162812	1004.783185749165	417.783911447851	616.461779549594	995.846498893531	307.556514640338	569.893381254885	799.119864726347	241.174176589149	535.539521587435	966.796059873505	185.162968928416	585.597240309204	855.557948052294	182.744344290527	611.883478663139	1030.489077522571	72.565735116871	613.494789080962	809.073723086674	38.950780379284	376.527418306822	886.375387370629	35.615079519842	298.835758843413	968.355363900037	95.762954024794	329.615267958091	1098.299321519242	41.958056819090	306.046112783180	996.218053424275	1090.224179423093	102.208961482459	1178.210606708777	901.924360933043	123.318530871897	996.016615824674	1097.284121192940	698.875105434158	1203.048347690425	949.922078931503	645.997297728936	
